# xmcd
#
# Track frame offsets: 
#        150
#        16095
#        30437
#        52017
#        88103
#        106727
#        116048
#        133740
#        165016
#        176555
#        190110
#        208599
#        221760
#        235939
#        253699
#        272227
#        291523
#        305999
#        326447
#
# Disc length: 4534 seconds
#
# Revision: 5
# Processed by: cddbd v1.5.2PL0 Copyright (c) Steve Scherf et al.
# Submitted via: ExactAudioCopy v0.95b4
#
DISCID=1411b413
DTITLE=Fleetwood Mac - Sony UK: The Complete Blue Horizon Sessions 196
DTITLE=7-1969 - Disc 6 of 6 (The Original Fleetwood Mac)
DYEAR=1971
DGENRE=Blues
TTITLE0=Drifting
TTITLE1=Leaving Town Blues
TTITLE2=Watch Out (Outtake '67 - Master 1999)
TTITLE3=A Fool No More (Outtake '67 - Master 1999)
TTITLE4=Mean Old Fireman
TTITLE5=Can't Afford To Do It
TTITLE6=Fleetwood Mac (As Bluesbreakers 04-67 - Master 1999)
TTITLE7=Worried Dream
TTITLE8=Love That Woman
TTITLE9=Allow Me One More Show
TTITLE10=First Train Home (As Bluesbreakers 04-67 - Master 1999)
TTITLE11=Rambling Pony No.2
TTITLE12=Watch Out (Take1)
TTITLE13=Something Inside Of Me (Take 1) - (''Then Play On'' Outtake O
TTITLE13=riginally Recorded '68 - Master 1999)
TTITLE14=Something Inside Of Me (Take 2)
TTITLE15=Something Inside Of Me (Take 3)
TTITLE16=One Sunny Day (''Then Play On'' Outtake Originally Recorded '
TTITLE16=68 - Master 1999)
TTITLE17=Without You (''Then Play On'' Outtake Originally Recorded '68
TTITLE17=Master 1999)
TTITLE18=Coming Your Way (Going My Way) - (''Then Play On'' Outtake Or
TTITLE18=iginally Recorded '68 - Master 1999)
EXTD=1999 Sony Music Entertainment (UK) Ltd.
EXTT0=
EXTT1=
EXTT2=
EXTT3=
EXTT4=
EXTT5=
EXTT6=
EXTT7=
EXTT8=
EXTT9=
EXTT10=
EXTT11=
EXTT12=
EXTT13=
EXTT14=
EXTT15=
EXTT16=
EXTT17=
EXTT18=
PLAYORDER=
